<svg width="90" height="90" viewBox="0 0 90 90" fill="none" xmlns="http://www.w3.org/2000/svg">
<path d="M19.7343 25.0515C18.3788 25.0515 17.2441 26.0793 17.1104 27.4282L16.7549 31.0151H58.4402L55.0904 26.1855C55.0484 26.1248 55.0009 26.0693 54.9545 26.013V25.5852C54.9545 19.5469 50.0421 14.6345 44.0038 14.6345H19.5706C18.1144 14.6345 16.9339 15.8151 16.9339 17.2712C16.9339 18.7274 18.1144 19.908 19.5706 19.908H21.5042L22.1426 20.7784V25.0515H19.7343Z" fill="#071C55" fill-opacity="0.8"/>
<path d="M87.3633 70.0922C84.6482 70.0922 81.9921 68.9491 79.6699 66.7893L89.7203 46.7391C90.1301 45.9219 90.0872 44.9504 89.6068 44.1724C89.1264 43.3944 88.2773 42.9208 87.3631 42.9208H66.6984L62.0981 36.2886H16.2323L15.5751 42.9208H10.7606C8.0441 42.9208 5.80377 44.9572 5.54379 47.6599L4.51037 57.7332H2.63672C1.18055 57.7332 0 58.9137 0 60.3699C0 61.8261 1.18055 63.0066 2.63672 63.0066H3.96949L3.48662 67.713C3.48592 67.7207 3.48504 67.7285 3.48434 67.7362C3.41121 68.5175 3.51791 69.2982 3.78229 70.0221C3.40207 70.0672 3.0201 70.0922 2.63672 70.0922C1.18055 70.0922 0 71.2727 0 72.7289C0 74.1851 1.18055 75.3656 2.63672 75.3656C6.42955 75.3656 10.0688 73.9541 13.227 71.2701C16.3862 73.9539 20.0262 75.3656 23.8191 75.3656C27.6117 75.3656 31.2509 73.9541 34.4092 71.2701C37.5685 73.9539 41.2086 75.3656 45.0012 75.3656C48.793 75.3656 52.4322 73.9546 55.5912 71.272C58.75 73.9546 62.3892 75.3656 66.1809 75.3656C69.9738 75.3656 73.613 73.9541 76.7712 71.2703C79.9304 73.9539 83.5704 75.3656 87.3633 75.3656C88.8195 75.3656 90 74.1851 90 72.7289C90 71.2727 88.8195 70.0922 87.3633 70.0922ZM30.7255 60.8547H27.999C26.5428 60.8547 25.3622 59.6742 25.3622 58.218C25.3622 56.7618 26.5428 55.5813 27.999 55.5813H30.7255C32.1817 55.5813 33.3622 56.7618 33.3622 58.218C33.3622 59.6742 32.1817 60.8547 30.7255 60.8547ZM44.8914 60.8547H42.1648C40.7087 60.8547 39.5281 59.6742 39.5281 58.218C39.5281 56.7618 40.7087 55.5813 42.1648 55.5813H44.8914C46.3475 55.5813 47.5281 56.7618 47.5281 58.218C47.5281 59.6742 46.3475 60.8547 44.8914 60.8547ZM59.0572 60.8547H56.3307C54.8745 60.8547 53.694 59.6742 53.694 58.218C53.694 56.7618 54.8745 55.5813 56.3307 55.5813H59.0572C60.5134 55.5813 61.6939 56.7618 61.6939 58.218C61.6939 59.6742 60.5134 60.8547 59.0572 60.8547Z" fill="#071C55" fill-opacity="0.8"/>
</svg>
