<svg width="90" height="90" viewBox="0 0 90 90" fill="none" xmlns="http://www.w3.org/2000/svg">
<path d="M7.44901 65.3909H82.5508C83.5395 65.3909 84.4828 64.9733 85.1498 64.2434C85.816 63.5135 86.1492 62.5337 86.0575 61.5484C84.3496 43.0584 70.4254 28.1215 52.4357 24.8414C52.4754 24.5266 52.5316 24.2181 52.5316 23.8915C52.5316 20.3608 49.6714 13.8765 44.9998 13.8765C40.3284 13.8765 37.4682 20.3608 37.4682 23.8915C37.4682 24.2181 37.5245 24.5264 37.5641 24.8414C19.5745 28.1217 5.65021 43.0586 3.94238 61.5486C3.85068 62.5339 4.17871 63.5136 4.84678 64.2436C5.51448 64.9759 6.45873 65.3909 7.44901 65.3909ZM41.9877 23.8917C41.9877 21.6258 43.9362 18.3959 45 18.3959C46.064 18.3959 48.0123 21.6258 48.0123 23.8917C48.0123 24.0356 47.9512 24.1562 47.9305 24.2943C46.9591 24.2264 45.9887 24.1562 45 24.1562C44.0114 24.1562 43.0409 24.2264 42.0696 24.2943C42.0488 24.1562 41.9877 24.0356 41.9877 23.8917Z" fill="#374876"/>
<path d="M86.2345 68.5917H3.76534C1.68564 68.5917 0 70.2771 0 72.357C0 74.4369 1.68564 76.1233 3.76534 76.1233H86.2345C88.3144 76.1233 89.9998 74.4367 89.9998 72.357C90 70.2771 88.3144 68.5917 86.2345 68.5917Z" fill="#374876"/>
</svg>
