<svg width="90" height="90" viewBox="0 0 90 90" fill="none" xmlns="http://www.w3.org/2000/svg">
<path d="M39.375 28.1237V22.4987H5.625C2.52562 22.4987 0 25.0243 0 28.1237V39.3737H40.5619C39.78 35.9368 39.375 32.2355 39.375 28.1237Z" fill="#071C55" fill-opacity="0.8"/>
<path d="M89.7694 50.6237C85.9331 56.5355 80.0831 61.5643 71.7019 66.3793C70.4137 67.1162 68.9625 67.4987 67.5 67.4987C66.0375 67.4987 64.5863 67.1162 63.315 66.3905C54.9337 61.5643 49.0838 56.5299 45.2419 50.6237H0V78.7487C0 81.8537 2.52562 84.3737 5.625 84.3737H84.375C87.48 84.3737 90 81.8537 90 78.7487V50.6237H89.7694ZM25.3125 67.4987H14.0625C12.51 67.4987 11.25 66.2387 11.25 64.6862C11.25 63.1337 12.51 61.8737 14.0625 61.8737H25.3125C26.865 61.8737 28.125 63.1337 28.125 64.6862C28.125 66.2387 26.865 67.4987 25.3125 67.4987Z" fill="#071C55" fill-opacity="0.8"/>
<path d="M88.2956 14.2917L68.6081 5.85416C67.8937 5.55041 67.1006 5.55041 66.3862 5.85416L46.6988 14.2917C45.6694 14.7304 45 15.7485 45 16.8735V28.1235C45 43.5979 50.7206 52.6429 66.0994 61.5023C66.5325 61.7498 67.0163 61.8735 67.5 61.8735C67.9837 61.8735 68.4675 61.7498 68.9006 61.5023C84.2794 52.6654 90 43.6204 90 28.1235V16.8735C90 15.7485 89.3306 14.7304 88.2956 14.2917ZM78.1369 27.0717L66.8869 41.1342C66.3469 41.7979 65.5369 42.186 64.6875 42.186C64.6481 42.186 64.6031 42.186 64.5694 42.186C63.675 42.1467 62.8481 41.6854 62.3475 40.9373L56.7225 32.4998C55.8619 31.206 56.2106 29.4623 57.5044 28.6017C58.7869 27.7467 60.5363 28.0842 61.4025 29.3835L64.8956 34.6204L73.7381 23.5617C74.7113 22.3523 76.4831 22.161 77.6925 23.1229C78.9075 24.0848 79.0987 25.8567 78.1369 27.0717Z" fill="#071C55" fill-opacity="0.8"/>
</svg>
