<svg width="90" height="90" viewBox="0 0 90 90" fill="none" xmlns="http://www.w3.org/2000/svg">
<g clip-path="url(#clip0_3589_312)">
<path d="M78.7163 0H65.7173C64.8403 0 64.1292 0.711091 64.1292 1.58814V9.52885H53.5283V1.58814C53.5283 0.711091 52.8172 0 51.9402 0H38.0519C37.1748 0 36.4638 0.711091 36.4638 1.58814V9.52885H25.8708V1.58814C25.8708 0.711091 25.1598 0 24.2827 0H11.2838C10.4067 0 9.69562 0.711091 9.69562 1.58814V18.6368C9.70435 22.9353 13.1869 26.4179 17.4855 26.4267H17.5172H72.5146C76.8131 26.4179 80.2957 22.9353 80.3044 18.6368V1.58814C80.3044 0.711091 79.5933 0 78.7163 0Z" fill="#071C55" fill-opacity="0.8"/>
<path d="M71.2202 28.801H18.8115L16.5643 79.7883V80.2806C16.549 82.7041 17.3677 85.0593 18.883 86.9508C20.274 88.7398 22.363 89.8493 24.6241 90H65.4155C67.6767 89.8493 69.7657 88.7398 71.1567 86.9508C72.672 85.0593 73.4907 82.7041 73.4754 80.2806C73.4754 80.1853 73.4754 80.0185 73.4754 79.7883L71.2202 28.801ZM57.0619 86.9031H32.9539V64.5421C32.9539 57.8783 38.356 52.4762 45.0198 52.4762C51.6837 52.4762 57.0857 57.8783 57.0857 64.5421L57.0619 86.9031Z" fill="#071C55" fill-opacity="0.8"/>
</g>
<defs>
<clipPath id="clip0_3589_312">
<rect width="90" height="90" fill="white"/>
</clipPath>
</defs>
</svg>
