<svg width="90" height="90" viewBox="0 0 90 90" fill="none" xmlns="http://www.w3.org/2000/svg">
<g clip-path="url(#clip0_3589_273)">
<path d="M89.8396 80.6768L81.8672 48.189C81.2692 45.9968 79.0766 44.6014 76.8844 45.0002C76.8844 45.0002 60.9395 48.189 60.5408 48.189C57.5512 53.7698 54.3622 59.1512 51.3725 64.134C49.9773 66.3264 47.5856 67.7216 44.9947 67.7216C42.4036 67.7216 40.0119 66.3264 38.6167 64.134C34.0326 56.5601 29.0498 47.7904 25.2629 39.6187L10.7131 45.3987C9.51725 45.9968 8.52069 46.9932 8.12207 48.3885L0.149606 80.4775C-0.249017 81.8727 0.149606 83.4672 1.34547 84.6631C2.34203 85.6596 3.93652 86.0582 5.53102 85.6596L28.0532 79.6803C28.8505 79.481 29.6477 79.481 30.445 79.6803L59.3451 89.0479C59.9431 89.2472 60.541 89.2472 61.3382 89.2472L86.2522 86.0582C87.4481 85.8589 88.6439 85.261 89.2419 84.2644C89.8398 83.2679 90.2383 81.8727 89.8396 80.6768Z" fill="#071C55" fill-opacity="0.8"/>
<path d="M44.9947 61.9416C45.5926 61.9416 45.9912 61.5429 46.3897 61.1443C50.9738 53.7698 64.9256 29.8524 64.9256 20.6841C64.9256 9.72194 55.9566 0.75293 44.9945 0.75293C34.0324 0.75293 25.0634 9.72194 25.0634 20.6841C25.0634 29.8524 39.0152 53.7698 43.5993 61.1443C43.9981 61.5429 44.5959 61.9416 44.9947 61.9416ZM35.2282 20.4848C35.2282 15.3027 39.4138 10.9178 44.7952 10.9178C49.9773 10.9178 54.3621 15.1034 54.3621 20.4848C54.3621 25.6669 50.1766 30.0517 44.7952 30.0517C39.4138 30.0517 35.2282 25.8662 35.2282 20.4848Z" fill="#071C55" fill-opacity="0.8"/>
</g>
<defs>
<clipPath id="clip0_3589_273">
<rect width="90" height="90" fill="white"/>
</clipPath>
</defs>
</svg>
