<svg width="90" height="90" viewBox="0 0 90 90" fill="none" xmlns="http://www.w3.org/2000/svg">
<g clip-path="url(#clip0_3589_302)">
<path d="M44.9999 0C20.1868 0 0 20.1868 0 44.9999C0 69.8129 20.1868 89.9997 44.9999 89.9997C69.8129 89.9997 89.9997 69.8129 89.9997 44.9999C89.9997 20.1868 69.8129 0 44.9999 0ZM83.1939 44.9999C83.1939 54.3072 79.8457 62.8464 74.2927 69.4801L63.2824 58.4701C67.484 56.7199 70.1218 51.7971 69.3636 46.5008C68.9921 43.8954 67.8176 41.0553 66.0798 38.9169H53.7082C52.1362 40.8488 51.0288 43.3543 50.5543 45.7417L48.3092 43.4969V39.9055C48.3092 35.9452 45.9689 32.5242 42.5993 30.9475V17.5964C42.8672 17.2415 43.029 16.8023 43.029 16.3226V16.1098C43.029 14.9419 42.0809 13.9946 40.9116 13.9946H35.9372C34.7684 13.9946 33.8197 14.9419 33.8197 16.1098V16.3226C33.8197 16.8026 33.9807 17.2415 34.2495 17.5964V29.4374L20.5191 15.7079C27.1528 10.1545 35.6922 6.80612 44.9999 6.80612C66.06 6.80612 83.1939 23.9398 83.1939 44.9999ZM62.237 67.3334V67.0494L62.5208 67.3334H62.237ZM6.80612 44.9999C6.80612 35.6928 10.1542 27.1536 15.7067 20.5202L29.9716 34.7845C29.0631 36.2791 28.5395 38.0322 28.5395 39.9058V70.129C28.5395 70.814 29.0949 71.3694 29.7782 71.3694H47.0697C47.7539 71.3694 48.309 70.814 48.309 70.129V53.1219L57.5509 62.3636V67.3334H55.7C55.029 67.3334 54.4851 67.8773 54.4851 68.5483V70.1901C54.4851 70.8611 55.029 71.405 55.7 71.405H64.086C64.757 71.405 65.3006 70.8611 65.3006 70.1901V70.1132L69.4798 74.2924C62.8467 79.8458 54.3075 83.1939 44.9999 83.1939C23.9398 83.1939 6.80612 66.06 6.80612 44.9999Z" fill="#071C55" fill-opacity="0.8"/>
</g>
<defs>
<clipPath id="clip0_3589_302">
<rect width="90" height="90" fill="white"/>
</clipPath>
</defs>
</svg>
