<svg width="26" height="26" viewBox="0 0 26 26" fill="none" xmlns="http://www.w3.org/2000/svg">
<g clip-path="url(#clip0_3589_489)">
<path d="M9.69981 23.6662C8.57549 23.6662 7.41823 23.5752 6.25403 23.3927C4.20354 23.0709 2.12785 21.9984 1.5405 21.6772L0 20.835L1.66785 20.2865C3.49101 19.687 4.60007 19.3151 5.97295 18.7327C4.59828 18.067 3.53882 16.8695 3.02882 15.3214L2.64082 14.1435L2.959 14.1921C2.65729 13.888 2.41905 13.5794 2.23438 13.2987C1.57759 12.3011 1.22986 11.0822 1.30385 10.0376L1.37685 9.00948L1.99237 9.24791C1.73271 8.75755 1.54506 8.23387 1.43477 7.685C1.16599 6.34644 1.39093 4.92436 2.06834 3.68082L2.60452 2.69653L3.32161 3.55783C5.58951 6.28217 8.46202 7.89824 11.8713 8.37134C11.7321 7.41145 11.8364 6.48509 12.1817 5.65474C12.5838 4.68791 13.2991 3.86807 14.2497 3.28369C15.3054 2.63484 16.5856 2.32044 17.8546 2.39839C19.2009 2.48111 20.4232 2.98555 21.394 3.85816C21.8681 3.73497 22.2174 3.60346 22.6895 3.42572C22.9736 3.3188 23.2957 3.1974 23.6988 3.05855L25.1841 2.54677L24.2155 5.31316C24.2794 5.3078 24.3452 5.30324 24.4141 5.30026L26.0002 5.22846L25.0627 6.50969C25.009 6.58309 24.9953 6.60391 24.9762 6.63268C24.9007 6.74654 24.8066 6.88817 23.5199 8.6064C23.1977 9.03665 23.0368 9.59703 23.0668 10.1846C23.1808 12.4174 22.9069 14.4375 22.2521 16.1887C21.6328 17.8454 20.6731 19.2669 19.4 20.4136C17.8246 21.8323 15.8158 22.8037 13.4291 23.3004C12.2583 23.544 11.0011 23.6662 9.69981 23.6662Z" fill="#E69A2F"/>
</g>
<defs>
<clipPath id="clip0_3589_489">
<rect width="26.0001" height="26" fill="white"/>
</clipPath>
</defs>
</svg>
