<svg width="23" height="23" viewBox="0 0 23 23" fill="none" xmlns="http://www.w3.org/2000/svg">
<path d="M2.6184 8.60269C2.6184 7.40231 3.59498 6.42568 4.79541 6.42568H9.68228C10.4411 6.42568 11.1102 6.81622 11.4999 7.40655C11.8898 6.81617 12.5588 6.42568 13.3176 6.42568H18.2045C19.4049 6.42568 20.3815 7.40231 20.3815 8.60269V8.70294H20.9265V6.58004C20.9265 5.26269 19.8547 4.19095 18.5374 4.19095H4.46245C3.1451 4.19095 2.07336 5.26269 2.07336 6.58004V8.70294H2.61835V8.60269H2.6184Z" fill="#071C55" fill-opacity="0.75"/>
<path d="M22.085 9.7195H0.914953C0.410446 9.7195 0 10.1299 0 10.6344V15.9459C0 16.4505 0.410446 16.8609 0.914953 16.8609H1.29582L0.8458 18.131C0.752023 18.3956 0.890569 18.6861 1.15513 18.7799C1.21129 18.7997 1.26858 18.8092 1.32492 18.8092C1.53415 18.8092 1.73018 18.679 1.80405 18.4705L2.37437 16.8608H20.6256L21.196 18.4705C21.2698 18.679 21.4658 18.8092 21.6751 18.8092C21.7314 18.8092 21.7887 18.7997 21.8449 18.7799C22.1095 18.6861 22.248 18.3956 22.1542 18.131L21.7042 16.8609H22.085C22.5896 16.8609 23 16.4505 23 15.9459V10.6344C23 10.1299 22.5896 9.7195 22.085 9.7195Z" fill="#071C55" fill-opacity="0.75"/>
<path d="M13.3177 7.44225C12.6779 7.44225 12.1573 7.96276 12.1573 8.60257V8.70282H19.365V8.60257C19.365 7.96276 18.8444 7.44225 18.2046 7.44225H13.3177Z" fill="#071C55" fill-opacity="0.75"/>
<path d="M4.79551 7.44225C4.15564 7.44225 3.63513 7.9628 3.63513 8.60262V8.70282H10.8427V8.60257C10.8427 7.96276 10.3222 7.44225 9.68237 7.44225H4.79551Z" fill="#071C55" fill-opacity="0.75"/>
</svg>
