<svg width="26" height="26" viewBox="0 0 26 26" fill="none" xmlns="http://www.w3.org/2000/svg">
<g clip-path="url(#clip0_3589_485)">
<path d="M22.75 0H3.25C1.45762 0 0 1.45762 0 3.25V22.75C0 24.5424 1.45762 26 3.25 26H13V17.0625H9.75V13H13V9.75C13 7.05737 15.1824 4.875 17.875 4.875H21.125V8.9375H19.5C18.603 8.9375 17.875 8.853 17.875 9.75V13H21.9375L20.3125 17.0625H17.875V26H22.75C24.5424 26 26 24.5424 26 22.75V3.25C26 1.45762 24.5424 0 22.75 0Z" fill="#E69A2F"/>
</g>
<defs>
<clipPath id="clip0_3589_485">
<rect width="26" height="26" fill="white"/>
</clipPath>
</defs>
</svg>
