<svg width="54" height="54" viewBox="0 0 54 54" fill="none" xmlns="http://www.w3.org/2000/svg">
    <circle cx="27" cy="27" r="27" fill="#071C55" fill-opacity="0.35"/>
    <g transform="translate(19, 14)">
        <path d="M15.6252 13.2562C15.6252 13.4563 15.5193 13.682 15.363 13.8309L3.12606 25.4877C2.96808 25.6382 2.73279 25.7374 2.5227 25.7374C2.31262 25.7374 2.07564 25.6366 1.91934 25.4877L0.606736 24.2373C0.448753 24.0868 0.344551 23.8867 0.344551 23.6626C0.344551 23.4624 0.450433 23.2367 0.606736 23.0878L10.9277 13.2562L0.606736 3.4245C0.448753 3.27401 0.344551 3.04987 0.344551 2.84975C0.344551 2.64963 0.450433 2.42389 0.606736 2.27499L1.91934 1.02463C2.07732 0.874133 2.31262 0.774872 2.5227 0.774872C2.73279 0.774872 2.96976 0.875734 3.12606 1.02463L15.363 12.6814C15.521 12.8319 15.6252 13.056 15.6252 13.2562Z" fill="white"/>
    </g>
</svg>