<svg width="12" height="7" viewBox="0 0 12 7" fill="none" xmlns="http://www.w3.org/2000/svg">
<path d="M6 7C5.9038 7 5.79528 6.9515 5.7237 6.87989L0.120062 1.2742C0.0477171 1.20183 0 1.09404 0 0.9978C0 0.901562 0.0484867 0.793005 0.120062 0.721403L0.72114 0.120106C0.793485 0.0477343 0.889687 0 0.997435 0C1.09364 0 1.20215 0.0485042 1.27373 0.120106L6 4.84811L10.7263 0.120106C10.7986 0.0477343 10.9064 0 11.0026 0C11.0988 0 11.2073 0.0485042 11.2789 0.120106L11.8799 0.721403C11.9523 0.793775 12 0.901562 12 0.9978C12 1.09404 11.9515 1.2026 11.8799 1.2742L6.2763 6.87989C6.20395 6.95227 6.0962 7 6 7Z" fill="#2F2F2F" fill-opacity="0.4"/>
</svg>
