<svg width="12" height="7" viewBox="0 0 12 7" fill="none" xmlns="http://www.w3.org/2000/svg">
<path d="M6 0C6.0962 0 6.20472 0.0485044 6.2763 0.120106L11.8799 5.7258C11.9523 5.79817 12 5.90596 12 6.0022C12 6.09844 11.9515 6.207 11.8799 6.2786L11.2789 6.87989C11.2065 6.95227 11.1103 7 11.0026 7C10.9064 7 10.7978 6.9515 10.7263 6.87989L6 2.15189L1.27373 6.87989C1.20139 6.95227 1.09364 7 0.997435 7C0.901231 7 0.792714 6.9515 0.721139 6.87989L0.120062 6.2786C0.0477169 6.20623 0 6.09844 0 6.0022C0 5.90596 0.0484865 5.7974 0.120062 5.7258L5.7237 0.120106C5.79605 0.0477347 5.9038 0 6 0Z" fill="#071C55" fill-opacity="0.75"/>
</svg>
