<svg width="23" height="23" viewBox="0 0 23 23" fill="none" xmlns="http://www.w3.org/2000/svg">
<g clip-path="url(#clip0_3589_328)">
<path d="M8.37987 12.6889C8.37987 12.4008 8.14619 12.1674 7.85782 12.1674H6.03605C5.74805 12.1674 5.51428 12.4008 5.51428 12.6889V14.5105C5.51428 14.799 5.74805 15.0325 6.03605 15.0325H7.85782C8.14619 15.0325 8.37987 14.799 8.37987 14.5105V12.6889Z" fill="#2F2F2F" fill-opacity="0.2"/>
<path d="M12.9326 12.6889C12.9326 12.4008 12.6989 12.1674 12.4111 12.1674H10.5891C10.3011 12.1674 10.0674 12.4008 10.0674 12.6889V14.5105C10.0674 14.799 10.3011 15.0325 10.5891 15.0325H12.4111C12.6989 15.0325 12.9326 14.799 12.9326 14.5105V12.6889Z" fill="#2F2F2F" fill-opacity="0.2"/>
<path d="M17.4858 12.6889C17.4858 12.4008 17.2521 12.1674 16.9641 12.1674H15.1423C14.854 12.1674 14.6202 12.4008 14.6202 12.6889V14.5105C14.6202 14.799 14.854 15.0325 15.1423 15.0325H16.9641C17.2521 15.0325 17.4858 14.799 17.4858 14.5105V12.6889Z" fill="#2F2F2F" fill-opacity="0.2"/>
<path d="M8.37987 17.2423C8.37987 16.9537 8.14619 16.7205 7.85782 16.7205H6.03605C5.74805 16.7205 5.51428 16.9537 5.51428 17.2423V19.0635C5.51428 19.3518 5.74805 19.5853 6.03605 19.5853H7.85782C8.14619 19.5853 8.37987 19.3518 8.37987 19.0635V17.2423Z" fill="#2F2F2F" fill-opacity="0.2"/>
<path d="M12.9326 17.2423C12.9326 16.9537 12.6989 16.7205 12.4111 16.7205H10.5891C10.3011 16.7205 10.0674 16.9537 10.0674 17.2423V19.0635C10.0674 19.3518 10.3011 19.5853 10.5891 19.5853H12.4111C12.6989 19.5853 12.9326 19.3518 12.9326 19.0635V17.2423Z" fill="#2F2F2F" fill-opacity="0.2"/>
<path d="M17.4858 17.2423C17.4858 16.9537 17.2521 16.7205 16.9643 16.7205H15.1423C14.854 16.7205 14.6202 16.9537 14.6202 17.2423V19.0635C14.6202 19.3518 14.854 19.5853 15.1423 19.5853H16.9643C17.2521 19.5853 17.4858 19.3518 17.4858 19.0635V17.2423Z" fill="#2F2F2F" fill-opacity="0.2"/>
<path d="M20.7433 2.56092V5.34317C20.7433 6.60068 19.7231 7.61406 18.4657 7.61406H17.029C15.7716 7.61406 14.7379 6.60068 14.7379 5.34317V2.55093H8.26223V5.34317C8.26223 6.60068 7.22857 7.61406 5.97131 7.61406H4.53431C3.27701 7.61406 2.25689 6.60068 2.25689 5.34317V2.56092C1.15799 2.59404 0.255005 3.50335 0.255005 4.62101V20.9262C0.255005 22.0648 1.17792 23 2.31659 23H20.6835C21.8205 23 22.7451 22.0629 22.7451 20.9262V4.62101C22.7451 3.50335 21.8422 2.59404 20.7433 2.56092ZM20.076 19.9108C20.076 20.4029 19.677 20.8021 19.1847 20.8021H3.77616C3.28389 20.8021 2.8849 20.4029 2.8849 19.9108V11.4886C2.8849 10.9963 3.28384 10.5971 3.77616 10.5971H19.1846C19.6769 10.5971 20.0759 10.9963 20.0759 11.4886L20.076 19.9108Z" fill="#2F2F2F" fill-opacity="0.2"/>
<path d="M4.52925 6.12256H5.9504C6.38176 6.12256 6.73148 5.77333 6.73148 5.34198V0.780862C6.73148 0.349463 6.38176 0 5.9504 0H4.52925C4.09787 0 3.74817 0.349463 3.74817 0.780862V5.34198C3.74817 5.77333 4.09787 6.12256 4.52925 6.12256Z" fill="#2F2F2F" fill-opacity="0.2"/>
<path d="M17.0108 6.12256H18.4319C18.8629 6.12256 19.2127 5.77333 19.2127 5.34198V0.780862C19.2128 0.349463 18.863 0 18.4319 0H17.0108C16.5795 0 16.2297 0.349463 16.2297 0.780862V5.34198C16.2297 5.77333 16.5795 6.12256 17.0108 6.12256Z" fill="#2F2F2F" fill-opacity="0.2"/>
</g>
<defs>
<clipPath id="clip0_3589_328">
<rect width="23" height="23" fill="white"/>
</clipPath>
</defs>
</svg>
