<svg width="55" height="55" viewBox="0 0 55 55" fill="none" xmlns="http://www.w3.org/2000/svg">
<g clip-path="url(#clip0_3589_174)">
<path d="M20.0387 30.3433C20.0387 29.6544 19.4799 29.0962 18.7904 29.0962H14.434C13.7452 29.0962 13.1863 29.6544 13.1863 30.3433V34.6992C13.1863 35.389 13.7452 35.9474 14.434 35.9474H18.7904C19.4799 35.9474 20.0387 35.389 20.0387 34.6992V30.3433Z" fill="#E69A2F"/>
<path d="M30.9259 30.3433C30.9259 29.6544 30.3669 29.0962 29.6787 29.0962H25.3218C24.6331 29.0962 24.0741 29.6544 24.0741 30.3433V34.6992C24.0741 35.389 24.6331 35.9474 25.3218 35.9474H29.6787C30.3669 35.9474 30.9259 35.389 30.9259 34.6992V30.3433Z" fill="#E69A2F"/>
<path d="M41.8137 30.3433C41.8137 29.6544 41.2547 29.0962 40.5659 29.0962H36.2096C35.52 29.0962 34.9612 29.6544 34.9612 30.3433V34.6992C34.9612 35.389 35.52 35.9474 36.2096 35.9474H40.5659C41.2547 35.9474 41.8137 35.389 41.8137 34.6992V30.3433Z" fill="#E69A2F"/>
<path d="M20.0387 41.2315C20.0387 40.5414 19.4799 39.9836 18.7904 39.9836H14.434C13.7452 39.9836 13.1863 40.5414 13.1863 41.2315V45.5865C13.1863 46.2759 13.7452 46.8342 14.434 46.8342H18.7904C19.4799 46.8342 20.0387 46.2758 20.0387 45.5865V41.2315Z" fill="#E69A2F"/>
<path d="M30.9259 41.2315C30.9259 40.5414 30.3669 39.9836 29.6787 39.9836H25.3218C24.6331 39.9836 24.0741 40.5414 24.0741 41.2315V45.5865C24.0741 46.2759 24.6331 46.8342 25.3218 46.8342H29.6787C30.3669 46.8342 30.9259 46.2758 30.9259 45.5865V41.2315Z" fill="#E69A2F"/>
<path d="M41.8137 41.2315C41.8137 40.5414 41.2547 39.9836 40.5665 39.9836H36.2096C35.52 39.9836 34.9612 40.5414 34.9612 41.2315V45.5865C34.9612 46.2759 35.52 46.8342 36.2096 46.8342H40.5665C41.2547 46.8342 41.8137 46.2758 41.8137 45.5865V41.2315Z" fill="#E69A2F"/>
<path d="M49.6033 6.12398V12.7771C49.6033 15.7843 47.1638 18.2076 44.1571 18.2076H40.7214C37.7145 18.2076 35.2426 15.7843 35.2426 12.7771V6.1001H19.7573V12.7771C19.7573 15.7843 17.2855 18.2076 14.2791 18.2076H10.8427C7.83615 18.2076 5.39673 15.7843 5.39673 12.7771V6.12398C2.76894 6.20319 0.609619 8.37761 0.609619 11.0502V50.0409C0.609619 52.7638 2.8166 55 5.53949 55H49.4604C52.1793 55 54.3903 52.7592 54.3903 50.0409V11.0502C54.3903 8.37761 52.2311 6.20319 49.6033 6.12398ZM48.0076 47.6129C48.0076 48.7896 47.0535 49.7442 45.8763 49.7442H9.02977C7.8526 49.7442 6.89851 48.7896 6.89851 47.6129V27.4728C6.89851 26.2956 7.85249 25.341 9.02977 25.341H45.8762C47.0534 25.341 48.0074 26.2956 48.0074 27.4728L48.0076 47.6129Z" fill="#E69A2F"/>
<path d="M10.8306 14.6409H14.229C15.2604 14.6409 16.0968 13.8058 16.0968 12.7743V1.86728C16.0968 0.835672 15.2604 0 14.229 0H10.8306C9.799 0 8.96277 0.835672 8.96277 1.86728V12.7743C8.96277 13.8058 9.799 14.6409 10.8306 14.6409Z" fill="#E69A2F"/>
<path d="M40.6775 14.6409H44.0759C45.1067 14.6409 45.943 13.8058 45.943 12.7743V1.86728C45.9432 0.835672 45.1068 0 44.0759 0H40.6775C39.6462 0 38.8098 0.835672 38.8098 1.86728V12.7743C38.8098 13.8058 39.6462 14.6409 40.6775 14.6409Z" fill="#E69A2F"/>
</g>
<defs>
<clipPath id="clip0_3589_174">
<rect width="55" height="55" fill="white"/>
</clipPath>
</defs>
</svg>
