<svg width="260" height="35" viewBox="0 0 260 35" fill="none" xmlns="http://www.w3.org/2000/svg">
<path d="M8.848 28.224C7.29867 28.224 5.88 28.0187 4.592 27.608C3.32267 27.1973 2.22133 26.5813 1.288 25.76L2.324 23.632C3.29467 24.416 4.30267 24.9853 5.348 25.34C6.39333 25.6947 7.56933 25.872 8.876 25.872C10.3693 25.872 11.5267 25.592 12.348 25.032C13.1693 24.472 13.58 23.6787 13.58 22.652C13.58 21.7933 13.1973 21.1493 12.432 20.72C11.6667 20.272 10.4533 19.8613 8.792 19.488C7.20533 19.152 5.908 18.7693 4.9 18.34C3.892 17.892 3.09867 17.304 2.52 16.576C1.94133 15.8293 1.652 14.8773 1.652 13.72C1.652 12.5627 1.96 11.5453 2.576 10.668C3.192 9.772 4.06 9.08133 5.18 8.596C6.31867 8.092 7.62533 7.84 9.1 7.84C10.5 7.84 11.8067 8.05467 13.02 8.484C14.252 8.91333 15.2787 9.52 16.1 10.304L15.064 12.432C14.1493 11.6667 13.2067 11.1067 12.236 10.752C11.2653 10.3787 10.2293 10.192 9.128 10.192C7.69067 10.192 6.56133 10.5 5.74 11.116C4.91867 11.7133 4.508 12.5347 4.508 13.58C4.508 14.476 4.86267 15.1573 5.572 15.624C6.3 16.0907 7.45733 16.5107 9.044 16.884C10.7053 17.2573 12.0493 17.6493 13.076 18.06C14.1027 18.4707 14.924 19.0307 15.54 19.74C16.156 20.4493 16.464 21.364 16.464 22.484C16.464 23.6413 16.156 24.6493 15.54 25.508C14.924 26.3667 14.0373 27.0387 12.88 27.524C11.7413 27.9907 10.3973 28.224 8.848 28.224ZM19.4828 8.064H32.4188V10.416H22.3388V16.688H31.8588V19.04H22.3388V25.648H32.4188V28H19.4828V8.064ZM51.4537 28H48.4017L45.9097 21.364C45.6484 20.6547 45.2657 20.1693 44.7617 19.908C44.2577 19.628 43.5671 19.488 42.6897 19.488H38.3217V28H35.4657V8.064H43.6697C45.8537 8.064 47.5244 8.54933 48.6817 9.52C49.8577 10.4907 50.4457 11.8813 50.4457 13.692C50.4457 14.9987 50.1004 16.1093 49.4097 17.024C48.7191 17.9387 47.7391 18.5827 46.4697 18.956C47.6271 19.1613 48.4671 19.9827 48.9897 21.42L51.4537 28ZM43.3337 17.164C44.7897 17.164 45.8724 16.884 46.5817 16.324C47.2911 15.7453 47.6457 14.8867 47.6457 13.748C47.6457 12.6093 47.2911 11.7693 46.5817 11.228C45.8911 10.668 44.8084 10.388 43.3337 10.388H38.3217V17.164H43.3337ZM54.4292 8.064H67.3652V10.416H57.2852V16.688H66.8052V19.04H57.2852V25.648H67.3652V28H54.4292V8.064ZM86.7641 8.064V28H84.5521L73.1281 12.936V28H70.4121V8.064H72.5961L84.0481 23.156V8.064H86.7641ZM103.956 23.072H93.8761L91.7481 28H88.8081L97.6841 8.064H100.12L109.024 28H106.084L103.956 23.072ZM102.976 20.776L98.9161 11.284L94.8561 20.776H102.976ZM111.046 8.064H118.018C121.247 8.064 123.749 8.932 125.522 10.668C127.295 12.404 128.182 14.8493 128.182 18.004C128.182 21.1773 127.295 23.6413 125.522 25.396C123.749 27.132 121.247 28 118.018 28H111.046V8.064ZM117.85 25.592C122.759 25.592 125.214 23.0627 125.214 18.004C125.214 12.9827 122.759 10.472 117.85 10.472H113.93V25.592H117.85ZM144.207 23.072H134.127L131.999 28H129.059L137.935 8.064H140.371L149.275 28H146.335L144.207 23.072ZM143.227 20.776L139.167 11.284L135.107 20.776H143.227Z" fill="#E69A2F"/>
<rect x="255" y="23" width="5" height="5" fill="#E69A2F"/>
<path d="M160.864 28.224C159.016 28.224 157.411 27.8227 156.048 27.02C154.685 26.1987 153.64 25.0227 152.912 23.492C152.184 21.9427 151.82 20.1133 151.82 18.004C151.82 15.9133 152.184 14.1027 152.912 12.572C153.64 11.0413 154.685 9.87467 156.048 9.072C157.411 8.25067 159.016 7.84 160.864 7.84C162.245 7.84 163.505 8.064 164.644 8.512C165.801 8.94133 166.8 9.58533 167.64 10.444L166.912 11.816C165.96 10.9573 165.008 10.3413 164.056 9.968C163.104 9.576 162.04 9.38 160.864 9.38C158.568 9.38 156.785 10.136 155.516 11.648C154.247 13.1413 153.612 15.26 153.612 18.004C153.612 20.7667 154.237 22.904 155.488 24.416C156.757 25.928 158.549 26.684 160.864 26.684C162.04 26.684 163.104 26.4973 164.056 26.124C165.008 25.732 165.96 25.1067 166.912 24.248L167.64 25.62C166.8 26.4787 165.801 27.132 164.644 27.58C163.505 28.0093 162.245 28.224 160.864 28.224ZM187.621 28H185.829L183.337 21.364C183.019 20.468 182.581 19.8707 182.021 19.572C181.461 19.2547 180.649 19.096 179.585 19.096H174.013V28H172.277V8.064H179.977C182.049 8.064 183.654 8.54 184.793 9.492C185.931 10.4253 186.501 11.7693 186.501 13.524C186.501 14.812 186.155 15.8947 185.465 16.772C184.793 17.6493 183.822 18.2653 182.553 18.62C183.131 18.7133 183.626 18.956 184.037 19.348C184.447 19.74 184.793 20.3187 185.073 21.084L187.621 28ZM179.865 17.584C183.131 17.584 184.765 16.2213 184.765 13.496C184.765 10.864 183.131 9.548 179.865 9.548H173.985V17.584H179.865ZM199.73 28.224C197.191 28.224 195.259 27.5613 193.934 26.236C192.627 24.892 191.974 22.9227 191.974 20.328V8.064H193.71V20.524C193.71 24.6307 195.717 26.684 199.73 26.684C201.69 26.684 203.174 26.1707 204.182 25.144C205.209 24.0987 205.722 22.5587 205.722 20.524V8.064H207.43V20.328C207.43 22.9227 206.777 24.892 205.47 26.236C204.163 27.5613 202.25 28.224 199.73 28.224ZM212.99 8.064H214.726V28H212.99V8.064ZM226.629 28.224C225.061 28.224 223.67 28.0187 222.457 27.608C221.262 27.1787 220.198 26.516 219.265 25.62L219.993 24.248C220.982 25.1253 221.981 25.7507 222.989 26.124C224.016 26.4973 225.229 26.684 226.629 26.684C228.309 26.684 229.616 26.3387 230.549 25.648C231.482 24.9573 231.949 23.9867 231.949 22.736C231.949 22.008 231.716 21.42 231.249 20.972C230.801 20.5053 230.222 20.1413 229.513 19.88C228.822 19.6187 227.898 19.3573 226.741 19.096C225.21 18.76 223.96 18.4147 222.989 18.06C222.037 17.6867 221.234 17.136 220.581 16.408C219.928 15.68 219.601 14.7093 219.601 13.496C219.601 12.376 219.89 11.3867 220.469 10.528C221.048 9.66933 221.869 9.00667 222.933 8.54C224.016 8.07333 225.266 7.84 226.685 7.84C228.048 7.84 229.308 8.064 230.465 8.512C231.622 8.94133 232.621 9.58533 233.461 10.444L232.733 11.816C231.8 10.976 230.848 10.36 229.877 9.968C228.906 9.576 227.842 9.38 226.685 9.38C225.005 9.38 223.689 9.744 222.737 10.472C221.804 11.2 221.337 12.1987 221.337 13.468C221.337 14.5693 221.748 15.3907 222.569 15.932C223.39 16.4733 224.594 16.9307 226.181 17.304L226.993 17.5C228.486 17.8547 229.672 18.2 230.549 18.536C231.426 18.872 232.173 19.376 232.789 20.048C233.405 20.72 233.713 21.616 233.713 22.736C233.713 23.8187 233.424 24.78 232.845 25.62C232.266 26.4413 231.436 27.0853 230.353 27.552C229.289 28 228.048 28.224 226.629 28.224ZM238.173 8.064H250.465V9.548H239.881V17.108H249.905V18.648H239.881V26.516H250.465V28H238.173V8.064Z" fill="white"/>
</svg>
