<svg width="55" height="55" viewBox="0 0 55 55" fill="none" xmlns="http://www.w3.org/2000/svg">
<g clip-path="url(#clip0_3589_166)">
<path d="M51.2496 45.0001H42.4997C36.9859 45.0001 32.4999 40.5141 32.4999 35.0003C32.4999 29.4865 36.9859 25.0005 42.4997 25.0005H51.2496C51.9405 25.0005 52.4996 24.4414 52.4996 23.7505V20.0005C52.4996 17.3793 50.4665 15.2476 47.8976 15.0409L40.7188 2.50202C40.0536 1.34235 38.9793 0.5135 37.6939 0.169326C36.4146 -0.172505 35.0768 0.00702353 33.9318 0.673458L9.32248 15.0006H5.00032C2.24283 15.0006 0.000366211 17.2429 0.000366211 20.0005V50C0.000366211 52.7575 2.24271 55 5.00032 55H47.4997C50.2572 55 52.4996 52.7576 52.4996 50V46.2501C52.4996 45.5592 51.9405 45.0001 51.2496 45.0001ZM42.2691 10.2433L44.9927 15.0006H34.0979L42.2691 10.2433ZM14.2912 15.0006L35.1903 2.83401C35.7555 2.50319 36.4158 2.4153 37.047 2.58382C37.6854 2.75467 38.2176 3.16728 38.5485 3.74466L38.551 3.74923L19.226 15.0006H14.2912Z" fill="#E69A2F"/>
<path d="M51.2494 27.5005H42.4995C38.3638 27.5005 34.9996 30.8646 34.9996 35.0004C34.9996 39.1361 38.3638 42.5002 42.4995 42.5002H51.2494C53.3173 42.5002 54.9993 40.8181 54.9993 38.7503V31.2504C54.9993 29.1826 53.3173 27.5005 51.2494 27.5005ZM42.4995 37.5003C41.1214 37.5003 39.9996 36.3785 39.9996 35.0004C39.9996 33.6223 41.1214 32.5004 42.4995 32.5004C43.8776 32.5004 44.9994 33.6223 44.9994 35.0004C44.9995 36.3785 43.8777 37.5003 42.4995 37.5003Z" fill="#E69A2F"/>
</g>
<defs>
<clipPath id="clip0_3589_166">
<rect width="55" height="55" fill="white"/>
</clipPath>
</defs>
</svg>
